<mxfile host="app.diagrams.net" agent="Mozilla/5.0 (Windows NT 10.0; Win64; x64) AppleWebKit/537.36 (KHTML, like Gecko) Chrome/141.0.0.0 Safari/537.36" version="28.2.5">
  <diagram name="Page-1" id="AYxSwciUTCpl69jyWCUO">
    <mxGraphModel dx="1226" dy="661" grid="1" gridSize="10" guides="1" tooltips="1" connect="1" arrows="1" fold="1" page="1" pageScale="1" pageWidth="1000" pageHeight="1169" math="0" shadow="0">
      <root>
        <mxCell id="0" />
        <mxCell id="1" parent="0" />
        <mxCell id="AThBN2_YQjhYtqKyWu4L-9" value="Start" style="rounded=1;whiteSpace=wrap;arcSize=50;strokeWidth=2;" vertex="1" parent="1">
          <mxGeometry x="470" y="93" width="60" height="39" as="geometry" />
        </mxCell>
        <mxCell id="AThBN2_YQjhYtqKyWu4L-10" value="Declare variables: Name string, Age = 0" style="whiteSpace=wrap;strokeWidth=2;" vertex="1" parent="1">
          <mxGeometry x="370" y="182" width="260" height="78" as="geometry" />
        </mxCell>
        <mxCell id="AThBN2_YQjhYtqKyWu4L-11" value="Print &#39;Enter your name:&#39;" style="whiteSpace=wrap;strokeWidth=2;" vertex="1" parent="1">
          <mxGeometry x="386" y="310" width="229" height="54" as="geometry" />
        </mxCell>
        <mxCell id="AThBN2_YQjhYtqKyWu4L-12" value="Input Name" style="whiteSpace=wrap;strokeWidth=2;" vertex="1" parent="1">
          <mxGeometry x="429" y="414" width="143" height="54" as="geometry" />
        </mxCell>
        <mxCell id="AThBN2_YQjhYtqKyWu4L-13" value="Print &#39;Enter your age:&#39;" style="whiteSpace=wrap;strokeWidth=2;" vertex="1" parent="1">
          <mxGeometry x="393" y="518" width="215" height="54" as="geometry" />
        </mxCell>
        <mxCell id="AThBN2_YQjhYtqKyWu4L-14" value="Input Age" style="whiteSpace=wrap;strokeWidth=2;" vertex="1" parent="1">
          <mxGeometry x="436" y="622" width="127" height="54" as="geometry" />
        </mxCell>
        <mxCell id="AThBN2_YQjhYtqKyWu4L-15" value="Print &#39;-----&#39;" style="whiteSpace=wrap;strokeWidth=2;" vertex="1" parent="1">
          <mxGeometry x="433" y="726" width="133" height="54" as="geometry" />
        </mxCell>
        <mxCell id="AThBN2_YQjhYtqKyWu4L-16" value="Print &#39;Hello &#39; + Name" style="whiteSpace=wrap;strokeWidth=2;" vertex="1" parent="1">
          <mxGeometry x="398" y="830" width="205" height="54" as="geometry" />
        </mxCell>
        <mxCell id="AThBN2_YQjhYtqKyWu4L-17" value="Print &#39;Age = &#39; + Age" style="whiteSpace=wrap;strokeWidth=2;" vertex="1" parent="1">
          <mxGeometry x="404" y="934" width="192" height="54" as="geometry" />
        </mxCell>
        <mxCell id="AThBN2_YQjhYtqKyWu4L-18" value="End" style="rounded=1;whiteSpace=wrap;arcSize=50;strokeWidth=2;" vertex="1" parent="1">
          <mxGeometry x="475" y="1038" width="51" height="39" as="geometry" />
        </mxCell>
        <mxCell id="AThBN2_YQjhYtqKyWu4L-19" value="" style="curved=1;startArrow=none;endArrow=block;exitX=0.5;exitY=1;entryX=0.5;entryY=0;rounded=0;" edge="1" parent="1" source="AThBN2_YQjhYtqKyWu4L-9" target="AThBN2_YQjhYtqKyWu4L-10">
          <mxGeometry relative="1" as="geometry">
            <Array as="points" />
          </mxGeometry>
        </mxCell>
        <mxCell id="AThBN2_YQjhYtqKyWu4L-20" value="" style="curved=1;startArrow=none;endArrow=block;exitX=0.5;exitY=1;entryX=0.5;entryY=0;rounded=0;" edge="1" parent="1" source="AThBN2_YQjhYtqKyWu4L-10" target="AThBN2_YQjhYtqKyWu4L-11">
          <mxGeometry relative="1" as="geometry">
            <Array as="points" />
          </mxGeometry>
        </mxCell>
        <mxCell id="AThBN2_YQjhYtqKyWu4L-21" value="" style="curved=1;startArrow=none;endArrow=block;exitX=0.5;exitY=1;entryX=0.5;entryY=0;rounded=0;" edge="1" parent="1" source="AThBN2_YQjhYtqKyWu4L-11" target="AThBN2_YQjhYtqKyWu4L-12">
          <mxGeometry relative="1" as="geometry">
            <Array as="points" />
          </mxGeometry>
        </mxCell>
        <mxCell id="AThBN2_YQjhYtqKyWu4L-22" value="" style="curved=1;startArrow=none;endArrow=block;exitX=0.5;exitY=1;entryX=0.5;entryY=0;rounded=0;" edge="1" parent="1" source="AThBN2_YQjhYtqKyWu4L-12" target="AThBN2_YQjhYtqKyWu4L-13">
          <mxGeometry relative="1" as="geometry">
            <Array as="points" />
          </mxGeometry>
        </mxCell>
        <mxCell id="AThBN2_YQjhYtqKyWu4L-23" value="" style="curved=1;startArrow=none;endArrow=block;exitX=0.5;exitY=1;entryX=0.5;entryY=0;rounded=0;" edge="1" parent="1" source="AThBN2_YQjhYtqKyWu4L-13" target="AThBN2_YQjhYtqKyWu4L-14">
          <mxGeometry relative="1" as="geometry">
            <Array as="points" />
          </mxGeometry>
        </mxCell>
        <mxCell id="AThBN2_YQjhYtqKyWu4L-24" value="" style="curved=1;startArrow=none;endArrow=block;exitX=0.5;exitY=1;entryX=0.5;entryY=0;rounded=0;" edge="1" parent="1" source="AThBN2_YQjhYtqKyWu4L-14" target="AThBN2_YQjhYtqKyWu4L-15">
          <mxGeometry relative="1" as="geometry">
            <Array as="points" />
          </mxGeometry>
        </mxCell>
        <mxCell id="AThBN2_YQjhYtqKyWu4L-25" value="" style="curved=1;startArrow=none;endArrow=block;exitX=0.5;exitY=1;entryX=0.5;entryY=0;rounded=0;" edge="1" parent="1" source="AThBN2_YQjhYtqKyWu4L-15" target="AThBN2_YQjhYtqKyWu4L-16">
          <mxGeometry relative="1" as="geometry">
            <Array as="points" />
          </mxGeometry>
        </mxCell>
        <mxCell id="AThBN2_YQjhYtqKyWu4L-26" value="" style="curved=1;startArrow=none;endArrow=block;exitX=0.5;exitY=1;entryX=0.5;entryY=0;rounded=0;" edge="1" parent="1" source="AThBN2_YQjhYtqKyWu4L-16" target="AThBN2_YQjhYtqKyWu4L-17">
          <mxGeometry relative="1" as="geometry">
            <Array as="points" />
          </mxGeometry>
        </mxCell>
        <mxCell id="AThBN2_YQjhYtqKyWu4L-27" value="" style="curved=1;startArrow=none;endArrow=block;exitX=0.5;exitY=1;entryX=0.49;entryY=0;rounded=0;" edge="1" parent="1" source="AThBN2_YQjhYtqKyWu4L-17" target="AThBN2_YQjhYtqKyWu4L-18">
          <mxGeometry relative="1" as="geometry">
            <Array as="points" />
          </mxGeometry>
        </mxCell>
      </root>
    </mxGraphModel>
  </diagram>
</mxfile>
